<svg xmlns="http://www.w3.org/2000/svg" viewBox="0 0 422 255"><path fill="#c3abf3" stroke="#c3abf3" d="M0 127.502v127.503l211.25-.253 211.25-.252.254-127.25L423.008 0H0v127.502m.485.498c0 70.125.119 98.813.265 63.75.146-35.062.146-92.437 0-127.5C.604 29.188.485 57.875.485 128M216 14.711c-7.492 3.83-7.042-3.871-6.756 115.466.256 106.536.259 106.681 2.352 109.5 4.537 6.113 14.271 6.113 18.808 0 2.093-2.819 2.096-2.974 2.359-109.25.285-115.155.454-111.273-4.982-114.835-3.888-2.547-7.93-2.85-11.781-.881m123.315 9.741c-3.75 1.645-6.315 6.07-6.315 10.896v3.447l-6.745 1.174c-31.976 5.569-50.074 28.542-44.315 56.25 4.208 20.245 16.449 29.963 50.81 40.341.956.288 1.25 6.167 1.25 24.988v24.611l-3.25-.696c-9.173-1.963-19.738-6.709-30.703-13.794-5.533-3.574-7.22-4.169-11.827-4.169-9.841 0-15.482 10.29-10.705 19.528 3.863 7.472 29.967 19.802 48.735 23.02l6.75 1.157v8.497c0 12.314 3.025 17.298 10.5 17.298 7.382 0 10.5-5.013 10.5-16.882 0-7.59.137-8.105 2.25-8.495 30.25-5.577 46.33-18.842 49.773-41.058 4.152-26.791-11.347-45.836-45.273-55.635l-7.75-2.238V64.841l3.25.679c1.788.373 8.894 3.334 15.793 6.579 13.906 6.543 16.123 6.925 21.059 3.638 7.011-4.67 8.506-13.484 3.332-19.633-4.596-5.462-27.246-14.828-39.424-16.303-2.2-.266-2.581-.941-3.276-5.801-1.24-8.674-7.286-12.678-14.419-9.548m-10.704 39.662C316.708 66.907 310 74.238 310 84.452c0 9.899 5.679 16.405 18.75 21.48l5.25 2.039V85.485c0-12.367-.337-22.44-.75-22.385-.413.056-2.5.512-4.639 1.014M353 164.628v22.628l4.083-.653c20.641-3.301 28.292-26.095 12.553-37.398-4.008-2.878-13.42-7.205-15.673-7.205-.589 0-.963 8.789-.963 22.628" fill-rule="evenodd"/><path fill="#d5c7ef" stroke="#d5c7ef" d="M0 127.502v127.503l211.25-.253 211.25-.252.254-127.25L423.008 0H0v127.502m.485.498c0 70.125.119 98.813.265 63.75.146-35.062.146-92.437 0-127.5C.604 29.188.485 57.875.485 128m212.75-111.577-3.735 3.423v217.993l2.349 2.5c5.323 5.667 12.94 5.707 18.211.097l2.44-2.597.263-107.943c.292-119.84.69-112.555-6.297-115.475-5.598-2.339-9.067-1.814-13.231 2.002m124.875 7.973c-3.312 1.835-5.033 5.347-5.075 10.354-.033 3.994-.206 4.25-2.875 4.25-16.854 0-37.474 12.762-44.901 27.79-5.413 10.954-5.66 28.696-.55 39.485 5.995 12.657 20.738 22.886 41.541 28.822l7.75 2.211v48.73l-2.75-.646c-10.523-2.473-18.851-6.308-31.655-14.578-18.856-12.179-34.775 8.901-16.642 22.037 10.522 7.622 26.088 14.093 41.047 17.065l8.5 1.688.285 9.63C333.147 233.419 335.58 237 343.5 237c7.992 0 10.5-3.704 10.5-15.512v-9.3l5.25-.689c32.618-4.281 52.731-29.594 46.641-58.7-3.608-17.247-16.995-29.073-42.075-37.169L353.5 112.3l-.268-23.65c-.148-13.008-.106-23.65.093-23.65 1.698 0 12.899 4.59 20.405 8.362 10.379 5.215 14.856 5.798 20.08 2.612 7.703-4.696 7.873-17.015.313-22.648-6.621-4.935-24.802-11.823-36.373-13.782-3.585-.607-3.75-.806-3.75-4.542 0-9.53-8.09-14.93-15.89-10.606M18.99 63.25c-7.995 5.441-7.456.925-7.765 65.072l-.276 57.178 2.276 4.5c1.671 3.306 3.469 5.102 6.775 6.77l4.5 2.269 67.177-.269c75.488-.303 69.581.31 75.096-7.794l2.273-3.34-.273-58.568L168.5 70.5l-2.23-3.127C161.56 60.771 164.306 61 89.747 61H22.296l-3.306 2.25m305.601 2.323c-14.847 5.44-19.636 23.035-8.847 32.507 3.408 2.993 14.86 8.92 17.234 8.92.664 0 1.022-7.525 1.022-21.5V64l-2.75.07c-1.512.039-4.509.715-6.659 1.503M80.746 91.086c-23.758 5.599-37.049 33.271-26.629 55.439 14.424 30.686 57.724 30.546 72.128-.234 4.852-10.369 4.642-27.832-.409-33.977-.637-.775-.604-1.878.095-3.184 2.35-4.392-.864-10.13-5.673-10.13-2.151 0-6.258 4.266-6.258 6.5 0 2.113 3.937 6.351 6.209 6.683 3.582.524 6.079 9.378 5.588 19.817-1.507 32.046-40.263 45.626-62.295 21.829-17.026-18.391-10.162-47.785 13.424-57.489 3.066-1.261 7.149-2.31 9.074-2.332 4.093-.045 6.543-1.32 5.569-2.896-.795-1.286-5.429-1.298-10.823-.026m37.59 13.481c-.331.862-.122 2.047.464 2.633 1.555 1.555 4.2.19 4.2-2.169 0-2.466-3.753-2.839-4.664-.464M353 164.452v22.586l2.75-.608c12.555-2.775 19.062-7.655 21.123-15.842 3.237-12.853-4.289-22.606-21.623-28.02l-2.25-.703v22.587" fill-rule="evenodd"/><path fill="#353535" stroke="#353535" d="M0 127.502v127.503l211.25-.253 211.25-.252.254-127.25L423.008 0H0v127.502m.485.498c0 70.125.119 98.813.265 63.75.146-35.062.146-92.437 0-127.5C.604 29.188.485 57.875.485 128M214.763 14.565C208.696 17.857 209 11.826 209 129c0 117.6-.332 111.225 5.967 114.483 5.993 3.099 13.684 1.026 16.516-4.45 2.337-4.519 2.295-217.478-.044-220.816-3.433-4.902-11.227-6.608-16.676-3.652m125.55 8.611c-4.287 1.141-7.14 5.043-7.905 10.809l-.633 4.766-5.335.627c-29.545 3.472-49.52 27.35-45.534 54.431 2.847 19.336 14.849 31.106 40.582 39.795L333 137.491v23.754c0 27.262 1.031 25.203-10.609 21.185-7.262-2.506-13.438-5.685-24.169-12.441-13.687-8.617-28.322 2.461-21.697 16.422 3.685 7.765 29.189 20.454 48.108 23.936l6.867 1.263.505 8.996c.578 10.312 2.207 13.749 7.581 15.994 9.373 3.917 15.396-3.061 15.408-17.85.005-5.886.242-6.75 1.846-6.75 3.8 0 17.486-4.053 23.702-7.02 28.833-13.761 35.982-52.466 13.529-73.253-8.589-7.952-21.033-14.307-34.821-17.782l-5.25-1.323v-46.66l2.75.625c1.512.344 7.842 3.04 14.066 5.992 6.223 2.951 12.298 5.448 13.5 5.549 12.536 1.051 20.276-11.119 13.434-21.122-4.079-5.963-24.869-15.449-38.38-17.511-4.077-.622-4.139-.694-4.782-5.544-1.09-8.214-7.035-12.701-14.275-10.775M21.684 61.449C10.694 65.368 11 63.4 11 130.082c0 64.577-.292 62.137 8.004 66.8 3.735 2.1 4.36 2.118 71.734 2.118h67.966l3.344-2.253c7.721-5.204 7.415-2.688 7.756-63.747.168-29.975.023-56.448-.323-58.828-.793-5.471-6.173-11.714-11.329-13.147-6.018-1.671-131.687-1.281-136.468.424m304.64 3.99c-10.812 3.381-15.812 9.408-15.813 19.061-.001 9.839 4.936 15.695 17.239 20.444l5.25 2.027V85.485c0-16.557-.287-21.47-1.25-21.418-.687.037-3.129.654-5.426 1.372M82.05 91.071c-11.16 2.24-22.667 11.608-27.854 22.676-4.094 8.736-3.98 24.132.243 32.753 3.747 7.651 11.398 15.302 19.061 19.058 8.602 4.218 24.015 4.341 32.718.262 19.187-8.993 28.081-30.582 20.712-50.276-1.563-4.179-1.757-5.868-.927-8.051 1.954-5.14-3.16-9.587-8.169-7.104-4.413 2.188-3.161 10.611 1.578 10.611 6.639 0 9.562 22.113 4.391 33.218-6.603 14.179-17.694 21.264-33.303 21.275-22.347.016-36-13.629-36-35.978 0-19.041 10.918-31.855 30.5-35.797 3.575-.719 6.401-1.738 6.281-2.263-.299-1.305-3.899-1.455-9.231-.384m37.2 11.647c-.687.247-1.25 1.499-1.25 2.782 0 2.685 1.723 3.629 4.25 2.33 3.335-1.715.586-6.397-3-5.112M354 164.392V186l2.75-.056c14.158-.288 24.432-16.193 18.879-29.226-2.25-5.282-10.693-11.206-18.879-13.249l-2.75-.686v21.609" fill-rule="evenodd"/><path fill="#272627" stroke="#272627" d="M0 127.5V255l152.25-.1c83.738-.055 153.375-.46 154.75-.9 2.305-.738 2.227-.811-1-.932-3.937-.148-7.988-2.513-5.803-3.388.717-.287.039-.558-1.506-.601-1.603-.045-2.544-.508-2.191-1.079.34-.55-.196-1.032-1.191-1.07-1.615-.063-1.594-.163.191-.93 1.676-.72 1.474-.871-1.25-.93-1.788-.038-3.25-.52-3.25-1.07s-.788-1.032-1.75-1.07c-1.496-.06-1.46-.195.25-.93 1.838-.79 1.798-.868-.5-.962-3.167-.129-6.699-2.598-4.803-3.358.717-.287.291-.558-.947-.601-1.238-.043-2.25-.529-2.25-1.079 0-.55-.788-1.032-1.75-1.07-1.496-.06-1.46-.195.25-.93 1.759-.756 1.662-.868-.809-.93-1.604-.04-2.544-.499-2.191-1.07.34-.55-.421-1.045-1.691-1.1-2.278-.098-2.275-.11.191-.9l2.5-.801-2.821-.099c-3.245-.115-6.459-2.617-4.42-3.441.683-.275-.023-.537-1.568-.58-1.603-.045-2.544-.508-2.191-1.079.34-.55-.196-1.032-1.191-1.07-1.615-.063-1.594-.163.191-.93 1.801-.774 1.739-.866-.628-.93-2.701-.072-5.368-2.241-4.197-3.412.362-.362-.124-.658-1.08-.658-2.382 0-5.033-2.655-3.336-3.341.705-.285.454-.535-.58-.58-2.49-.108-5.117-2.734-3.42-3.42.705-.285.454-.535-.58-.58-2.49-.108-5.117-2.734-3.42-3.42.705-.285.454-.535-.58-.58-2.49-.108-5.117-2.734-3.42-3.42.705-.285.454-.535-.58-.58-2.49-.108-5.117-2.734-3.42-3.42.705-.285.454-.535-.58-.58-2.49-.108-5.117-2.734-3.42-3.42.709-.286.466-.535-.568-.58-.995-.043-1.531-.529-1.191-1.079.34-.55.141-1-.441-1-.715 0-1.059 7.561-1.059 23.277 0 25.456-.153 26.199-6.011 29.229-5.193 2.685-10.72 1.963-14.589-1.906l-3.4-3.4v-38.6c0-30.205-.272-38.603-1.25-38.615-.833-.011-.75-.339.25-.985 1.248-.806 1.164-.984-.5-1.055l-2-.086 2-.859c1.759-.756 1.662-.868-.809-.93-1.604-.04-2.544-.499-2.191-1.07.34-.55.029-1.007-.691-1.015-.951-.011-.899-.281.191-.985 1.225-.792 1.107-.972-.643-.985-2.654-.019-3.908-2.715-1.552-3.336 1.489-.393 1.473-.461-.126-.563-3.203-.204-5.119-2.892-2.431-3.41 1.893-.364 1.804-.455-.557-.57-1.592-.077-2.541-.569-2.191-1.136.34-.55-.196-1.032-1.191-1.07-1.615-.063-1.594-.163.191-.93 1.908-.82 1.897-.863-.25-.93-2.012-.063-2.725-1.062-2.368-3.32.065-.413-.444-.757-1.132-.765-.833-.011-.75-.339.25-.985 1.197-.774.995-.993-1-1.084l-2.5-.115L191 134l2.5-.801-2.809-.099c-1.599-.057-2.543-.531-2.191-1.1.34-.55.029-1.007-.691-1.015-.951-.011-.899-.281.191-.985 1.272-.822 1.225-.972-.309-.985-.995-.008-1.531-.465-1.191-1.015.34-.55-.196-1.032-1.191-1.07-1.615-.063-1.594-.163.191-.93 1.836-.789 1.795-.866-.5-.945-1.991-.068-2.195-.283-1-1.055 1.248-.806 1.164-.984-.5-1.055l-2-.086 2-.859c1.908-.82 1.897-.863-.25-.93-2.012-.063-2.725-1.062-2.368-3.32.065-.412-.584-.75-1.441-.75-.857 0-1.281-.45-.941-1 .34-.55.029-1.045-.691-1.1-.72-.055-.184-.46 1.191-.9l2.5-.801-2.809-.099c-1.599-.057-2.543-.531-2.191-1.1.34-.55.029-1.007-.691-1.015-.951-.011-.899-.281.191-.985 1.272-.822 1.225-.972-.309-.985-.995-.008-1.531-.465-1.191-1.015.34-.55.029-1.007-.691-1.015-.951-.011-.899-.281.191-.985 1.272-.822 1.225-.972-.309-.985-.995-.008-1.531-.465-1.191-1.015.34-.55.029-1.007-.691-1.015-.951-.011-.899-.281.191-.985 1.282-.828 1.246-.972-.25-.985-1.639-.014-1.75 2.667-1.75 42.42 0 45.448-.047 45.913-5.223 51.279-5.151 5.341-6.877 5.454-77.777 5.104-72.336-.357-68.477.05-73.747-7.77L11 188.704V71.296l2.25-3.306c5.472-8.04-.203-7.427 74.073-8.008 36.397-.284 65.502-.629 64.677-.765-1.333-.22-1.333-.355 0-1.217 1.333-.862 1.333-.973 0-1-1.333-.027-1.333-.138 0-1 1.248-.806 1.164-.984-.5-1.055l-2-.086 2-.859c1.908-.82 1.897-.863-.25-.93-2.385-.074-3.113-2.555-1-3.408.725-.292.49-.537-.559-.583-.995-.043-1.531-.529-1.191-1.079.34-.55.029-1.007-.691-1.015-.951-.011-.899-.281.191-.985 1.314-.849 1.304-.971-.083-.985-.871-.008-1.584-.69-1.584-1.515s.713-1.545 1.584-1.6c.87-.055.458-.46-.917-.9s-1.905-.845-1.179-.9c1.002-.076.939-.483-.259-1.681-.869-.869-1.325-1.994-1.012-2.5.312-.505-.021-.926-.741-.934-.951-.011-.899-.281.191-.985 1.333-.862 1.333-.973 0-1-1.333-.027-1.333-.138 0-1 1.272-.822 1.225-.972-.309-.985-.995-.008-1.531-.465-1.191-1.015.34-.55.029-1.045-.691-1.1-.72-.055-.184-.46 1.191-.9 2.267-.726 2.3-.81.357-.9-2.671-.125-3.887-2.806-1.552-3.421 1.498-.395 1.485-.46-.114-.563-.995-.064-1.531-.566-1.191-1.116.34-.55.029-1.007-.691-1.015-.951-.011-.899-.281.191-.985 1.333-.862 1.333-.973 0-1-1.333-.027-1.333-.138 0-1 1.248-.806 1.164-.984-.5-1.055l-2-.086 2-.859c1.785-.767 1.806-.867.191-.93-.995-.038-1.555-.482-1.244-.985.311-.503 0-1.142-.691-1.421-.966-.389-.951-.524.065-.585.966-.058.865-.536-.372-1.773-1.592-1.592-1.581-1.738.178-2.43 1.755-.689 1.759-.74.064-.806-.995-.038-1.531-.52-1.191-1.07.34-.55.029-1.007-.691-1.015-.951-.011-.899-.281.191-.985 1.333-.862 1.333-.973 0-1-1.204-.025-1.237-.197-.165-.877C138.744.279 130.428.027 66.25.014L0 0v127.5m76.5-34.456c-32.239 12.507-33.996 57.598-2.812 72.191 31.601 14.788 66.069-17.462 52.897-49.493-1.303-3.167-1.967-6.006-1.477-6.309.491-.303.892-2.109.892-4.013 0-3.992-3.097-6.114-7.36-5.045-5.163 1.296-4.699 9.046.623 10.394 7.735 1.959 10.013 21.633 3.995 34.494-15.276 32.644-62.715 26.088-69.308-9.578-3.608-19.517 11.858-39.98 32.023-42.368 2.765-.328 5.027-.983 5.027-1.456 0-1.561-9.406-.793-14.5 1.183m41.438 11.073c-.896 1.672-.814 2.435.387 3.636 2.863 2.864 7.251-1.149 4.664-4.266-1.738-2.095-3.726-1.847-5.051.63" fill-rule="evenodd"/></svg>